<?xml version="1.0" standalone="no"?>
<!DOCTYPE svg PUBLIC "-//W3C//DTD SVG 20010904//EN"
 "http://www.w3.org/TR/2001/REC-SVG-20010904/DTD/svg10.dtd">
<svg version="1.0" xmlns="http://www.w3.org/2000/svg"
 width="1070.000000pt" height="1070.000000pt" viewBox="0 0 1070.000000 1070.000000"
 preserveAspectRatio="xMidYMid meet">
<metadata>
Created by potrace 1.14, written by Peter Selinger 2001-2017
</metadata>
<g transform="translate(0.000000,1070.000000) scale(0.100000,-0.100000)"
fill="#000000" stroke="none">
<path d="M1544 8277 c0 -65 -5 -126 -19 -242 -3 -22 -10 -62 -17 -90 -7 -27
-12 -54 -13 -60 -2 -30 -40 -133 -70 -193 -40 -78 -91 -134 -150 -165 -73 -37
-226 -30 -371 18 -112 37 -302 133 -447 224 -55 35 -101 60 -104 57 -3 -2 55
-65 128 -139 220 -220 354 -370 415 -462 95 -143 55 -197 -211 -286 -55 -19
-102 -34 -105 -34 -3 -1 -44 -14 -92 -29 -49 -15 -94 -29 -100 -30 -7 -1 -19
-5 -25 -9 -7 -5 -13 -6 -13 -3 0 3 -12 1 -27 -5 -16 -6 -41 -13 -58 -16 -16
-2 -33 -8 -37 -12 -4 -4 34 -29 85 -56 50 -26 134 -75 185 -107 51 -32 97 -58
102 -58 4 0 10 -3 12 -8 2 -4 28 -24 58 -44 30 -20 69 -48 85 -63 17 -14 40
-33 53 -42 12 -8 22 -22 22 -29 0 -8 4 -14 9 -14 10 0 55 -92 66 -135 15 -61
14 -174 -2 -222 -54 -161 -230 -283 -510 -353 -55 -14 -57 -33 -3 -28 22 2 40
1 40 -2 0 -3 8 -6 18 -7 9 -1 31 -5 47 -8 17 -4 42 -9 57 -12 16 -3 28 -10 28
-16 0 -6 3 -8 6 -4 6 6 94 -34 121 -56 210 -167 278 -444 159 -646 -56 -96
-167 -195 -290 -260 -60 -32 -222 -91 -248 -91 -8 0 -23 -7 -34 -15 -18 -14
-17 -15 11 -10 17 3 41 7 55 11 14 3 75 7 135 8 177 5 283 -32 386 -134 129
-127 139 -257 31 -389 -61 -76 -176 -181 -316 -291 -10 -8 -33 -27 -50 -41
-63 -52 -234 -177 -341 -250 -60 -41 -111 -77 -113 -81 -2 -5 -9 -8 -15 -8 -7
0 -23 -9 -37 -20 l-25 -20 100 5 c133 7 245 14 330 20 395 30 454 26 591 -40
115 -56 271 -189 304 -260 56 -122 88 -332 91 -593 1 -61 5 -112 10 -112 5 0
9 10 10 23 0 12 2 29 4 37 1 8 6 46 9 83 4 37 9 76 11 86 2 10 6 34 9 52 3 19
8 45 11 59 3 14 8 35 11 48 29 139 107 312 176 387 83 91 183 125 357 119 87
-4 144 -20 361 -106 161 -64 323 -154 390 -218 8 -9 34 -29 55 -45 22 -17 43
-34 47 -40 9 -12 128 -134 128 -130 0 1 -16 36 -35 78 -36 77 -103 268 -112
316 -2 14 -9 46 -15 71 -12 52 -19 202 -11 242 4 22 8 25 18 14 12 -11 52 -37
145 -94 14 -9 26 -15 28 -14 1 1 16 -5 32 -13 16 -8 32 -15 35 -15 3 0 22 -7
42 -15 44 -17 153 -45 197 -50 172 -23 346 -23 463 -1 11 3 36 7 54 10 142 22
329 85 495 167 156 76 259 144 338 222 63 61 166 195 166 215 0 6 3 12 7 14 7
3 85 155 82 160 0 2 9 28 21 58 13 30 26 69 31 85 4 17 15 55 23 85 9 30 18
69 21 85 3 17 8 38 11 47 7 24 14 58 20 103 2 22 6 51 9 65 13 86 23 196 26
283 2 53 13 80 16 40 1 -10 4 -29 7 -43 3 -14 8 -38 11 -55 41 -205 141 -484
238 -664 38 -72 110 -185 119 -189 5 -2 8 -8 8 -13 0 -37 245 -299 279 -299 5
0 11 -3 13 -8 4 -10 173 -92 190 -92 7 -1 31 -8 53 -16 22 -8 56 -17 75 -20
19 -2 46 -7 60 -11 14 -3 93 -7 175 -8 256 -5 467 53 645 176 60 41 142 119
176 165 29 41 82 144 90 177 3 15 10 27 14 27 4 0 32 -24 61 -52 52 -51 113
-106 175 -158 51 -43 198 -147 234 -165 19 -10 37 -21 40 -24 19 -25 252 -128
370 -163 63 -18 76 -22 130 -33 114 -23 390 -24 390 -2 0 5 4 6 9 2 12 -7 163
41 226 72 178 89 358 252 463 418 29 46 61 114 63 132 0 5 4 13 9 18 11 14 31
114 32 166 1 84 -41 179 -107 242 -31 30 -150 111 -199 137 -61 32 -161 149
-142 167 2 2 0 17 -4 33 -6 22 -2 42 20 87 34 71 112 145 265 251 61 42 112
80 113 84 2 4 8 8 14 8 6 0 26 11 44 25 18 14 37 25 43 25 6 0 11 4 11 8 0 5
24 24 53 42 28 19 57 38 62 42 6 4 29 23 52 40 22 18 56 44 75 58 94 71 259
227 362 341 163 182 375 520 441 704 10 28 21 55 25 60 12 18 48 147 67 235
26 126 24 348 -5 459 -30 116 -98 254 -167 341 -37 47 -175 179 -205 197 -17
9 -30 21 -30 25 0 4 -4 8 -9 8 -5 0 -33 16 -62 36 -44 30 -152 84 -264 134
-39 17 -170 62 -195 66 -14 3 -32 7 -40 11 -17 7 -23 9 -65 18 -16 3 -34 7
-40 9 -24 6 -124 26 -170 33 -67 10 -405 10 -480 0 -152 -21 -419 -91 -519
-137 -23 -10 -69 -30 -103 -44 -207 -86 -488 -264 -652 -410 -199 -178 -347
-357 -506 -610 -117 -187 -301 -641 -329 -811 -2 -16 -9 -45 -15 -62 -5 -18
-7 -33 -4 -33 3 0 0 -6 -6 -13 -6 -8 -9 -16 -7 -18 3 -2 0 -27 -5 -54 -9 -49
-36 -235 -38 -265 -3 -44 -9 -92 -13 -96 -3 -2 -11 7 -18 21 -7 14 -17 25 -22
25 -4 0 -8 5 -8 10 0 8 -39 62 -113 155 -43 55 -154 201 -162 213 -5 9 -15 21
-21 27 -6 5 -24 28 -40 50 -16 22 -31 42 -34 45 -26 25 -200 277 -200 289 0 5
-4 11 -9 13 -13 5 -80 135 -108 207 -28 74 -35 165 -17 202 20 41 83 100 166
157 26 18 52 38 60 44 7 7 33 26 58 42 106 68 230 174 230 195 0 6 4 11 9 11
18 0 48 115 50 193 3 111 -26 194 -89 256 -62 61 -66 64 -135 88 -112 40 -155
46 -315 47 -138 0 -216 -7 -341 -30 -46 -8 -97 -18 -114 -21 -45 -8 -45 -8
-125 -32 -41 -13 -93 -32 -115 -43 -41 -21 -105 -81 -105 -98 0 -6 -11 -28
-25 -49 -47 -71 -57 -157 -34 -286 6 -33 12 -69 14 -80 4 -25 44 -175 52 -195
3 -8 8 -22 10 -30 5 -19 9 -32 16 -50 3 -8 22 -67 42 -130 21 -63 42 -124 46
-135 5 -11 -1 -7 -13 9 -72 93 -121 146 -164 183 -51 42 -131 73 -174 67 -56
-7 -83 -16 -97 -29 -8 -8 -18 -15 -22 -15 -12 0 -95 -85 -122 -125 -13 -19
-27 -35 -30 -35 -4 0 -4 33 -1 73 13 177 5 343 -24 472 -8 39 -16 75 -17 80
-2 6 -5 15 -8 20 -4 6 -12 28 -19 50 -15 48 -48 114 -64 130 -25 25 -106 75
-120 75 -9 0 -16 5 -16 10 0 6 -3 9 -7 8 -5 -1 -35 7 -68 17 -33 11 -62 19
-65 20 -42 10 -123 25 -150 29 -19 3 -53 8 -75 12 -58 9 -321 11 -380 3 -27
-4 -69 -10 -92 -13 -151 -19 -307 -84 -385 -160 -70 -68 -93 -124 -93 -228 0
-74 3 -91 23 -117 12 -16 22 -35 22 -41 0 -5 4 -10 8 -10 5 0 21 -11 37 -24
l27 -24 -34 -11 c-79 -26 -141 -36 -228 -35 -102 1 -164 32 -212 106 -34 52
-66 123 -74 163 -2 11 -6 30 -9 43 -3 12 -7 30 -9 40 -6 26 -18 118 -22 167
-6 75 -6 373 0 383 4 6 3 13 -1 15 -5 3 -33 -23 -63 -57 -97 -109 -244 -218
-347 -258 -95 -37 -216 -5 -308 80 -74 67 -225 261 -225 288 0 4 -6 15 -14 23
-15 17 -128 237 -145 284 -17 45 -26 31 -27 -46z m1885 -1256 c47 -16 100 -32
116 -35 17 -3 41 -7 55 -10 14 -3 61 -9 105 -12 44 -3 98 -7 120 -9 22 -2 48
-4 58 -4 9 -1 27 -11 38 -22 19 -19 21 -29 15 -79 -15 -128 -118 -405 -271
-725 -30 -64 -55 -117 -55 -119 0 -2 -39 -84 -87 -182 -48 -99 -88 -181 -88
-184 -1 -3 -38 -80 -83 -173 -45 -92 -81 -168 -79 -170 1 -1 -9 -19 -21 -39
-13 -21 -20 -38 -15 -38 4 0 3 -4 -3 -8 -5 -4 -18 -25 -28 -47 -10 -22 -37
-78 -59 -125 -23 -47 -42 -87 -43 -90 -1 -3 -5 -15 -9 -27 -10 -33 -19 -29
-44 20 -41 81 -53 195 -37 348 6 52 45 228 54 244 4 6 8 19 10 30 3 19 -10 5
-58 -65 -97 -143 -294 -297 -445 -350 -56 -19 -200 -24 -280 -9 -314 58 -479
241 -425 473 43 187 177 312 373 349 125 24 407 6 510 -32 12 -4 35 -11 51
-15 l29 -7 -31 35 c-85 97 -158 240 -167 329 -12 114 -8 156 18 195 23 36 114
131 168 177 68 57 209 172 233 190 16 11 33 25 40 30 6 6 38 30 71 55 73 55
70 52 125 95 25 19 47 35 49 35 2 0 42 -13 90 -29z m-1481 -163 c4 -102 52
-202 118 -247 17 -12 54 -30 83 -40 l53 -18 -58 -19 c-105 -32 -172 -85 -207
-163 -12 -25 -22 -53 -24 -61 -3 -17 -11 -80 -12 -94 -1 -6 -16 16 -35 47 -31
51 -74 97 -113 120 -40 24 -151 29 -208 10 l-40 -13 58 54 c31 29 57 59 57 65
0 6 5 11 10 11 6 0 10 7 10 15 0 8 4 15 8 15 12 0 32 90 28 120 -9 62 -18 95
-28 107 -6 7 -7 13 -2 13 5 0 2 5 -6 10 -28 18 8 11 47 -10 21 -10 50 -21 66
-24 41 -7 127 35 127 63 0 6 3 11 8 11 4 0 16 20 27 44 11 24 22 43 25 41 3
-2 7 -27 8 -57z m7392 -382 c167 -50 214 -204 114 -381 -31 -56 -101 -135
-154 -176 -25 -19 -47 -37 -50 -41 -3 -3 -41 -24 -85 -47 -73 -37 -181 -70
-230 -70 -11 -1 -27 -1 -35 -2 -29 -2 -102 12 -133 25 -128 55 -161 209 -77
361 60 110 181 220 301 275 30 14 56 27 59 30 3 3 16 7 30 9 14 1 41 8 60 15
38 13 160 14 200 2z m-7155 -2085 c50 -43 122 -55 204 -36 l35 7 -26 -31 c-46
-54 -48 -112 -5 -158 22 -25 22 -25 -21 -27 -30 -1 -77 -22 -99 -43 -7 -6 -23
-32 -36 -56 l-22 -45 -19 39 c-25 51 -75 66 -128 38 -22 -12 -23 -5 -3 25 8
12 18 42 21 65 6 40 3 45 -34 81 -39 36 -40 38 -18 44 50 12 77 54 82 126 1
19 3 40 3 45 1 6 9 -3 20 -20 10 -16 31 -41 46 -54z"/>
</g>
</svg>
